<svg width="1003" height="444" fill="none" xmlns="http://www.w3.org/2000/svg"><g opacity=".1"><path d="M510 3c26 76 165 235 508 257" stroke="url(#a)"/><path d="M164 34c5 81 98 271 423 381" stroke="url(#b)"/><path d="M626 1c26 77 165 236 508 258" stroke="url(#c)"/><path d="M276 63c6 81 98 270 424 380" stroke="url(#d)"/><path d="M420 46c32 95 177 279 503 251" stroke="url(#e)"/><path d="M66 53c6 100 98 315 420 372" stroke="url(#f)"/></g><defs><linearGradient id="a" x1="763.8" y1="2.5" x2="763.8" y2="260" gradientUnits="userSpaceOnUse"><stop offset=".4" stop-color="#215EE9"/><stop offset="1" stop-color="#215EE9" stop-opacity="0"/></linearGradient><linearGradient id="b" x1="408.9" y1="100.2" x2="342.2" y2="348.9" gradientUnits="userSpaceOnUse"><stop offset=".4" stop-color="#215EE9"/><stop offset="1" stop-color="#215EE9" stop-opacity="0"/></linearGradient><linearGradient id="c" x1="879.8" y1="1" x2="879.8" y2="258.5" gradientUnits="userSpaceOnUse"><stop offset=".4" stop-color="#215EE9"/><stop offset="1" stop-color="#215EE9" stop-opacity="0"/></linearGradient><linearGradient id="d" x1="521.3" y1="128.7" x2="454.7" y2="377.5" gradientUnits="userSpaceOnUse"><stop offset=".4" stop-color="#215EE9"/><stop offset="1" stop-color="#215EE9" stop-opacity="0"/></linearGradient><linearGradient id="e" x1="671.3" y1="46" x2="671.3" y2="299.4" gradientUnits="userSpaceOnUse"><stop offset=".4" stop-color="#215EE9"/><stop offset="1" stop-color="#215EE9" stop-opacity="0"/></linearGradient><linearGradient id="f" x1="308.3" y1="118.3" x2="242.7" y2="363" gradientUnits="userSpaceOnUse"><stop offset=".4" stop-color="#215EE9"/><stop offset="1" stop-color="#215EE9" stop-opacity="0"/></linearGradient></defs></svg>